<svg xmlns="http://www.w3.org/2000/svg" viewBox="0 0 400 400"><g fill-rule="evenodd"><path fill="#270727" d="M175.4 148.013c-6.576.783-12.563 4.803-16.665 11.187-1.059 1.65-2.111 3.22-2.336 3.489-.31.37-1.106.023-3.304-1.443-5.31-3.542-11.72-5.146-16.049-4.016-.905.236-2.366.615-3.246.841-12.627 3.247-20.722 18.171-17.989 33.167l.262 1.438-1.936.481c-6.28 1.562-9.192 3.124-13.137 7.048-11.604 11.544-10.744 32.484 1.747 42.506 1.553 1.246 1.623 1.396 1.403 3-.535 3.908 2.066 8.826 5.641 10.667 1.965 1.012 2.091 1.023 12.865 1.14l10.881.118 1.231-1.79c.678-.985 1.232-1.887 1.232-2.005 0-.118.717-1.323 1.592-2.678.876-1.355 1.496-2.621 1.377-2.813-.119-.193-6.036-.35-13.15-.35-14.625 0-14.103.129-12.407-3.061 1.836-3.453 1.019-5.48-3.204-7.949-7.121-4.165-10.74-12.691-8.813-20.762 2.604-10.907 11.929-16.225 22.559-12.867 8.376 2.647 15.694.222 20.113-6.665 3.868-6.028-2.246-10.53-6.863-5.054-3.996 4.738-10.701 4.994-12.442.473-5.887-15.289 8.425-30.945 22.124-24.201 3.639 1.791 7.511 5.933 7.52 8.044.011 2.46 1.536 7.696 3.202 10.99 1.904 3.765 1.929 4.057.419 4.838-3.198 1.654-7.945 7.155-9.978 11.562-4.922 10.672-1.852 25.853 4.362 21.57 2.105-1.451 2.381-2.763 1.58-7.518-1.503-8.914 5.521-19.045 13.304-19.187 2.679-.049 2.463.127 5.063-4.129 1.74-2.848 1.928-3.346 1.334-3.535-10.906-3.461-14.638-19.592-6.542-28.274 6.573-7.048 15.73-7.102 22.408-.134l1.359 1.418 1.389-2.28a178.81 178.81 0 0 0 2.184-3.679c.437-.77.977-1.624 1.2-1.898.463-.57-.241-1.265-3.69-3.64-5.078-3.496-10.384-4.79-16.6-4.049m39.8.009c-4.263.49-7.26 1.709-11.038 4.491l-2.398 1.765-.5 4.961c-.275 2.728-.672 6.273-.882 7.877-.744 5.682-.02 5.833 2.542.53 4.241-8.777 12.036-12.61 20.076-9.872 3.205 1.092 2.818 1.218 6.557-2.126 3.229-2.888 3.229-2.914-.104-4.812-4.199-2.392-9.252-3.389-14.253-2.814m21.437 17.478-2.568 3.9.401 2.8c1.022 7.128-1.476 10.831-7.67 11.373l-2.6.227-2.3 3.378c-2.79 4.098-2.795 4.168-.325 4.976 6.424 2.101 13.162-.309 18.323-6.554 4.506-5.453 6.211-7.23 7.863-8.198 16.418-9.622 32.916 13.213 19.864 27.494-6.841 7.486-20.97 6.818-21.774-1.029-.747-7.289-4.56-12.83-7.882-11.454-2.985 1.236-3.547 4.171-1.569 8.187 2.632 5.344 1.122 11.889-3.474 15.051-4.028 2.771-3.741 7.927.501 8.991 2.031.51 7.375-3.451 9.181-6.806 1.01-1.874 1.33-1.942 3.673-.783 7.331 3.628 16.927 2.647 23.697-2.421 1.812-1.358 2.268-1.312 5.06.506 10.818 7.045 10.519 24.672-.537 31.684L272.643 248l-9.821.002c-15.12.004-13.323-1.613-19.6 17.626-5.862 17.968-5.728 17.574-6.002 17.566-.519-.015-1.654-1.273-12.987-14.394-16.953-19.627-17.206-19.899-18.946-20.383-.954-.265-11.116-.413-28.346-.415L150.083 248l-1.292 1.5c-.711.825-2.616 2.869-4.234 4.541-1.618 1.673-2.825 3.158-2.682 3.3.142.143 13.712.259 30.154.259h29.897l4.937 5.684c2.715 3.126 6.745 7.761 8.954 10.3 2.209 2.539 7.588 8.756 11.953 13.816 8.558 9.921 9.523 10.759 12.03 10.448 2.759-.343 3.243-1.268 7.563-14.465a6145.32 6145.32 0 0 1 6.18-18.783l2.257-6.8 8.8-.2c11.023-.251 13.416-1.137 19.028-7.052 11.531-12.153 9.116-36.103-4.368-43.316-1.071-.573-1.055-.838.356-5.632 6.89-23.424-14.268-44.604-34.216-34.251-1.32.685-2.517 1.301-2.661 1.368-.144.068-.573-.83-.955-1.997-.738-2.256-2.075-5.12-2.39-5.12-.104 0-1.345 1.755-2.757 3.9M212.4 204.919c-3.511 1.19-3.092.777-7.727 7.606a1755.601 1755.601 0 0 1-6.798 9.942l-2.675 3.866.005 3.934c.01 8.873 3.566 13.22 7.448 9.105 1.521-1.614 1.67-2.759.866-6.652-1.748-8.463 4.341-17.612 13.003-19.54 2.911-.648 4.278-2.066 4.278-4.437 0-4.375-2.891-5.692-8.4-3.824M133.192 226.3c-3.418 3.081-.014 9.364 7.285 13.446 3.239 1.811 3.103 1.825 4.415-.452.6-1.042 1.545-2.664 2.1-3.605 1.331-2.259 1.355-2.2-1.292-3.285-1.709-.7-3.096-1.747-5.398-4.073-3.606-3.644-4.908-4.016-7.11-2.031m31.576 6.208a3799.437 3799.437 0 0 0-6.4 6.854l-2.568 2.761 1.575-.294c6.963-1.298 14.248-8.849 12.211-12.655-.611-1.141-.66-1.107-4.818 3.334"/><path fill="#fff" d="M0 200v200h400V0H0v200m263.2-73.37c0 .21-3.125 4.861-17.93 26.681-3.487 5.14-4.871 7.503-4.729 8.077.11.447.684 2.107 1.275 3.689l1.074 2.877 2.655-1.346c20.88-10.586 42.013 11.757 34.328 36.293l-.897 2.865 4.043 4.017c13.896 13.809 10.688 38.481-6.068 46.672L274.2 257.8l-8.865.121c-7.896.108-8.895.195-9.139.8-.151.373-2.943 8.845-6.205 18.826-6.371 19.493-6.619 20.037-9.515 20.836-3.184.879-3.582.565-12.836-10.138l-10.24-11.84c-2.42-2.798-6.905-7.997-9.967-11.555-3.063-3.558-5.943-6.56-6.4-6.672-.458-.112-14.114-.153-30.347-.091l-29.514.113-2.886 3.007c-2.983 3.109-7.008 7.354-13.362 14.094-2.022 2.144-3.777 3.899-3.9 3.899-.722 0-.316-.729 8.111-14.564 1.998-3.281 3.539-6.116 3.425-6.3-.114-.185-4.832-.338-10.484-.34-14.589-.005-17.859-1.941-18.393-10.89l-.185-3.093-1.801-1.476c-16.969-13.905-9.776-45.76 11.228-49.723 1.467-.277 2.584-.638 2.482-.803-.102-.165-.361-1.842-.575-3.727-2.662-23.425 20.331-39.928 38.581-27.69l2.56 1.717 1.78-2.856c8.206-13.165 25.054-16.343 36.174-6.825 2.314 1.981 1.794 2.416 6.852-5.73 1.81-2.914 2.023-2.678 1.742 1.932l-.246 4.031 2.504-1.618c7.983-5.16 18.008-5.405 25.483-.622 1.185.757 2.375 1.373 2.646 1.368.27-.006 7.062-5.765 15.092-12.799 13.438-11.772 15.2-13.227 15.2-12.562m-88.686 31.53c-11.787 3.825-15.104 19.31-6.059 28.292 1.953 1.94 5.634 4.057 6.095 3.506.072-.087 1.981-3.218 4.241-6.958s4.669-7.692 5.353-8.781c.684-1.09 1.517-2.454 1.85-3.031.333-.577 1.371-2.326 2.306-3.888 2.047-3.42 2.034-3.166.283-5.211-3.056-3.57-9.568-5.389-14.069-3.929m39.438-.008c-4.367 1.177-7.858 4.45-10.393 9.745-.869 1.814-1.999 3.573-2.512 3.909-.769.504-.977 1.082-1.186 3.302-.14 1.481-.373 3.487-.519 4.458-.232 1.548-.182 1.735.406 1.509 1.068-.41 25.056-21.546 24.843-21.89-.84-1.359-7.154-1.972-10.639-1.033m-77.258 9.083c-10.012 2.359-15.838 16.004-10.906 25.541 1.759 3.403 7.301 2.434 11.426-1.998 5.268-5.659 11.646.139 7.224 6.567-4.825 7.012-12.548 9.327-21.438 6.426-19.575-6.388-30.218 22.606-12.103 32.97 3.866 2.212 4.988 5.154 3.152 8.265-1.611 2.731-2.261 2.594 12.333 2.594h13.183l1.638-2.805c1.527-2.615 1.73-3.595.743-3.595-1.623 0-7.631-5.048-9.707-8.156-4.27-6.394 3.118-11.581 8.003-5.618a15.932 15.932 0 0 0 6.444 4.697l1.687.66 1.856-2.87c2.588-4.001 2.58-3.913.374-3.913-3.908 0-5.507-3.336-5.486-11.445.023-9.12 4.838-18.363 11.887-22.823l1.724-1.091-1.727-3.438c-1.575-3.138-2.429-6.145-3.214-11.322-.802-5.286-10.51-10.197-17.093-8.646M229.109 177c-4.034 5.977-4.169 6.486-1.583 6.006 4.759-.884 7.443-4.874 6.576-9.775-.476-2.687-.8-2.442-4.993 3.769m23.691-.847c-4.587 1.014-7.051 2.879-11.251 8.515-6.038 8.104-13.827 10.782-21.969 7.554-.451-.179-1.262.707-2.989 3.266a410.062 410.062 0 0 1-4.252 6.174c-1.844 2.607-2.081 3.443-.786 2.777 4.802-2.473 10.041-.448 10.046 3.881.003 2.903-1.702 4.695-5.254 5.524-8.654 2.018-13.932 11.116-11.913 20.532 1.133 5.283-3.636 8.903-7.388 5.609-1.539-1.351-2-2.857-2.473-8.085-.349-3.845-.237-3.872-3.366.814-4.901 7.34-7.405 10.877-7.705 10.881-.414.007-.376-3.379.078-6.879.209-1.604.576-5.076.817-7.716.241-2.64.603-6.33.805-8.2.201-1.87.477-5.02.613-7l.247-3.6-1.097 1.2a517.96 517.96 0 0 1-4.73 5.006c-3.785 3.965-8.18 8.675-9.743 10.439-.853.963-.871 1.099-.302 2.191 2.172 4.166-3.641 10.457-12.386 13.403-2.781.937-3.427 1.344-4.952 3.119l-1.754 2.042 27.152.017c31.329.019 28.126-.429 32.422 4.541l7.13 8.247c2.42 2.799 7.6 8.795 11.511 13.325 3.911 4.53 7.251 8.323 7.424 8.43.172.106 2.593-6.771 5.379-15.283 6.933-21.178 5.008-19.277 19.513-19.277 11.675 0 11.588.022 15.393-3.782 8.301-8.297 6.41-24.062-3.473-28.952l-1.637-.81-2.329 1.589c-7.191 4.909-18.356 5.692-24.17 1.697-1.121-.77-1.121-.77-2.78 1.639-3.669 5.327-8.574 7.561-11.393 5.19-2.909-2.448-2.443-6.008 1.162-8.882 4.721-3.763 5.951-9.372 3.266-14.889-1.461-3.002-1.575-4.488-.484-6.278 3.368-5.524 9.282-1.528 10.86 7.337.974 5.474.721 5.014 3.558 6.443 7.426 3.74 16.287.56 20.345-7.302 6.206-12.026-4.468-27.248-17.145-24.447m-86.624 22.655c-8.101 1.722-13.599 12.14-11.131 21.092.389 1.412.628 1.17 3.357-3.4 1.412-2.365 3.136-5.2 3.831-6.3 7.44-11.769 7.577-12.165 3.943-11.392"/><path fill="#f22d3d" d="M247.432 140.226c-7.665 6.706-14.161 12.323-14.435 12.483-.544.317-5.758 4.887-7.387 6.475-.556.541-6.14 5.472-12.41 10.957-6.27 5.484-11.896 10.431-12.503 10.993-1.974 1.828-2.115-.265-.707-10.534.551-4.023 1.121-9.76 1.609-16.2.208-2.75.497-5.765.642-6.7.362-2.327-.211-2.14-1.834.6-.75 1.265-2.408 3.874-3.685 5.798-1.277 1.924-2.322 3.601-2.322 3.728 0 .126-.511.982-1.137 1.902-.625.92-1.674 2.662-2.332 3.872-.658 1.21-2.512 4.36-4.121 7-1.609 2.64-3.956 6.51-5.217 8.6-4.096 6.792-5.689 9.372-6.793 11-1.611 2.377-4.381 6.928-5.599 9.2-.589 1.1-2.567 4.43-4.396 7.4-1.828 2.97-4.401 7.2-5.717 9.4-1.315 2.2-2.89 4.726-3.499 5.613a51.908 51.908 0 0 0-2.2 3.6c-1.822 3.314-4.656 7.787-4.933 7.787-.143 0-.519.585-.834 1.3-.569 1.291-3.232 5.657-4.014 6.583-.224.266-.408.652-.408.859 0 .368-2.925 5.352-3.65 6.22-.6.717-3.55 5.446-3.55 5.69 0 .123-.348.713-.773 1.31-.425.596-1.294 2.064-1.931 3.261-.638 1.197-1.886 3.347-2.773 4.777-8.693 14.012-9.553 15.689-6.228 12.138 9.383-10.022 13.365-14.222 17.954-18.938 2.89-2.97 6.508-6.841 8.039-8.602 1.531-1.762 3.398-3.754 4.148-4.427.75-.674 2.434-2.383 3.741-3.798a826.202 826.202 0 0 1 5.6-5.978c1.773-1.873 4.244-4.585 5.493-6.027 1.248-1.442 4.225-4.68 6.616-7.195 2.391-2.515 5.6-5.949 7.131-7.631 1.531-1.683 2.918-3.078 3.083-3.1.417-.058.376 3.539-.084 7.358-.212 1.76-.584 5.36-.826 8-.242 2.64-.601 6.24-.798 8-.197 1.76-.466 4.73-.597 6.6l-.239 3.4 1.463-2c.805-1.1 3.241-4.61 5.414-7.8 2.174-3.19 5.402-7.87 7.176-10.4 5.717-8.158 11.365-16.484 12.391-18.27 1.17-2.036 8.416-12.636 8.839-12.931.239-.167 4.32-6.095 5.761-8.368 1.878-2.962 8.399-12.674 8.616-12.831.152-.11 4.136-5.96 8.853-13a5666.546 5666.546 0 0 1 14.092-20.929c3.033-4.47 5.446-8.198 5.361-8.282-.085-.085-6.425 5.332-14.09 12.037"/><path fill="#bd99a5" d="M248.2 139.031c-7.92 6.946-14.746 12.765-15.168 12.933-.437.173-.592.414-.359.558.226.139 6.775-5.313 14.553-12.117 7.779-6.803 14.212-12.3 14.297-12.216.084.085-2.325 3.812-5.353 8.282a68634.44 68634.44 0 0 0-10.838 16.004c-4.936 7.29-5.886 9.135-4.99 9.689.188.117.265-.193.17-.688-.125-.654 1.174-2.883 4.758-8.165 19.236-28.351 18.293-26.913 17.63-26.909-.165.001-6.78 5.684-14.7 12.629m-47.421 7.869c-3.683 5.933-4.526 7.1-5.126 7.106-.552.005-.563.063-.072.374.821.519.845.492 3.653-4.173 2.598-4.317 2.974-4.717 3.29-3.507.101.385.204.115.23-.6.065-1.838-.472-1.62-1.975.8m-27.179.713c-.646.216-.22.253 1.2.106 1.21-.125 2.275-.293 2.367-.373.32-.281-2.576-.063-3.567.267m6.433-.267c.092.08 1.157.248 2.367.373 1.42.147 1.846.11 1.2-.106-.991-.33-3.887-.548-3.567-.267m33.367.254c-1.663.423-.026.442 2 .023 1.345-.278 1.409-.331.4-.33-.66.001-1.74.139-2.4.307m6.233-.251c.092.082 1.067.252 2.167.379 1.349.156 1.674.121 1-.108-.999-.34-3.482-.552-3.167-.271m-17.733 2.807c-.595 3.879-.444 4.075 1.7 2.195 1.378-1.208 1.38-1.214.12-.376l-1.279.851-.121-2.313-.12-2.313-.3 1.956m24.9-1.173c0 .18 2.402 1.417 2.75 1.417.347 0-1.256-1.033-2.05-1.321-.385-.14-.7-.183-.7-.096m-60.862 1.802c-1.025.643-1.981 1.362-2.127 1.596-.24.389 3.072-1.652 3.969-2.445.73-.645.006-.312-1.842.849m23.262-1.006c0 .11.54.48 1.2.821.66.341 1.2.531 1.2.421 0-.11-.54-.48-1.2-.821-.66-.341-1.2-.531-1.2-.421m17.1.45c-1.495.811-1.404 1.149.1.371.66-.341 1.2-.706 1.2-.81 0-.258-.043-.243-1.3.439m-14.3 1.096c0 .099.661.684 1.468 1.3.808.616 1.343.916 1.188.666-.316-.512-2.656-2.244-2.656-1.966m-53.289 5.368c.94.085 2.38.084 3.2-.002.819-.086.049-.155-1.711-.154-1.76.002-2.43.072-1.489.156m-4.511.507c-.504.217-.578.344-.2.344.33 0 .96-.155 1.4-.344.504-.217.578-.344.2-.344-.33 0-.96.155-1.4.344m43.3.282a5.661 5.661 0 0 0 1.8 0c.495-.095.09-.173-.9-.173s-1.395.078-.9.173m39.4.005a8.899 8.899 0 0 0 2.2 0c.605-.092.11-.167-1.1-.167-1.21 0-1.705.075-1.1.167m-68.142.95c.967.429 1.83.708 1.917.621.173-.172-2.91-1.476-3.383-1.43-.161.016.499.38 1.466.809m25.242-.419c-.438.297-.276.334.6.138 1.471-.329 1.79-.558.767-.55-.422.003-1.037.189-1.367.412m50.152.897c.631.462-.573 1.634-11.514 11.209-12.916 11.303-13.247 11.557-13.577 10.405-.133-.463-.182-.364-.135.271.125 1.685.608 1.33 13.067-9.6 6.646-5.83 12.363-10.819 12.705-11.087.664-.522.092-1.713-.823-1.713-.236 0-.111.232.277.515m-96.252.914c-1.495.811-1.404 1.149.1.371.66-.341 1.2-.706 1.2-.81 0-.258-.043-.243-1.3.439m23.3-.508c0 .091 1.035.83 2.3 1.642 1.265.812 1.808 1.058 1.206.547-1.188-1.01-3.506-2.457-3.506-2.189m17.496 1.979c-1.177 1.155-1.411 1.452-.518.659.892-.792 2.067-1.737 2.611-2.1.544-.362.777-.659.519-.659-.259 0-1.434.945-2.612 2.1m-44.75 1.601c-1.239 1.154-2.782 2.819-3.428 3.699-1.485 2.023-3.045 4.6-2.785 4.6.109 0 .779-.945 1.488-2.1.71-1.155 2.647-3.495 4.304-5.2 3.483-3.583 3.67-4.025.421-.999m82.972-.801c-1.351 1.418-3.718 5.017-3.718 5.655 0 .219.642-.671 1.426-1.979.784-1.307 1.989-2.961 2.678-3.676.689-.715 1.163-1.3 1.053-1.3-.11 0-.758.585-1.439 1.3m-17.718.429c0 .155.209.616.464 1.025.39.624.158 1.25-1.446 3.895a549.32 549.32 0 0 0-2.617 4.351c-.388.66-2.736 4.53-5.218 8.6-2.482 4.07-4.799 7.9-5.148 8.512-.499.873-.849 1.068-1.635.91-.999-.2-.999-.2-.087.256 1.224.611.941.992 8.082-10.878a2001.96 2001.96 0 0 1 5.545-9.136c1.793-2.935 3.254-5.545 3.247-5.8-.013-.495-1.187-2.21-1.187-1.735m62.4 1.884c-.646.216-.22.253 1.2.106 1.21-.125 2.275-.293 2.367-.373.32-.281-2.576-.063-3.567.267m5.233-.263c.092.082 1.247.25 2.567.373 1.578.147 1.989.112 1.2-.103-1.234-.335-4.064-.538-3.767-.27m-119.316 2.578c-.375.15.862.275 2.751.278 1.889.004 3.006-.113 2.483-.26-1.252-.351-4.371-.361-5.234-.018m7.899 1.194c2.638 1.107 4.462 2.412 6.434 4.607 1.024 1.139 1.473 1.498.998.798-1.767-2.603-6.777-6.183-8.544-6.105-.277.013.223.328 1.112.7M163.4 170c-.152.691-.193 1.341-.091 1.442.102.102.3-.389.441-1.092.333-1.667.01-1.99-.35-.35m109.4 1.422c1.43 1.539 2.668 2.755 2.752 2.703.236-.148-1.974-2.571-3.752-4.113-.949-.823-.542-.25 1 1.41m-43.8 5.011c-4.333 6.508-4.48 6.767-3.833 6.767.238 0 .388-.147.333-.326-.162-.53 7.462-11.653 7.9-11.526.22.063.511.731.647 1.484.228 1.26.252 1.279.3.242.055-1.159-.554-2.684-1.061-2.661-.157.006-2.086 2.716-4.286 6.02m-100.414-4.655c-.212.297-.803 1.098-1.313 1.781-.51.682-.855 1.241-.767 1.241.283 0 2.78-3.247 2.62-3.407-.085-.085-.328.088-.54.385m71.235.587c-.124.201-.316 1.776-.427 3.5-.25 3.893.084 3.407.525-.765.33-3.113.319-3.409-.098-2.735m-45.925 4.281c.116 1.075.276 2.029.357 2.121.319.362.112-3.002-.216-3.521-.215-.339-.269.205-.141 1.4m122.628-.846c.338.66.914 1.56 1.28 2 .366.44.261.08-.234-.8-1.09-1.942-1.906-2.878-1.046-1.2m-161.095 1.229c-.148.586-.191 1.143-.097 1.237.095.094.292-.308.439-.895.148-.586.191-1.143.097-1.237-.095-.094-.292.308-.439.895m47.799.204c.016.532.191 1.327.391 1.767.252.558.288.315.119-.8-.283-1.857-.551-2.364-.51-.967m70.826.013c-.029.575-.435 1.53-.9 2.121s-.776 1.145-.691 1.23c.396.395 1.984-2.625 1.823-3.468-.166-.873-.18-.866-.232.117m12.906 1.102c-.858.632-2.1 1.753-2.76 2.491-.851.952-.619.821.8-.45 1.1-.985 2.45-2.096 3-2.469.55-.373.892-.687.76-.699-.132-.012-.942.496-1.8 1.127m17.462.247c.758.547 2.076 1.762 2.929 2.7 1.188 1.305 1.348 1.403.681.416-.893-1.323-4.048-4.111-4.651-4.111-.185 0 .284.448 1.041.995M114.901 180.6c.004.88.086 1.193.182.695.096-.497.092-1.217-.008-1.6-.1-.382-.179.025-.174.905m39.743.4c.329 1.471.558 1.79.55.767-.003-.422-.189-1.037-.412-1.367-.297-.438-.334-.276-.138.6m10.753 2.195c.833 1.61 2.821 3.832 4.35 4.86.689.464.397.086-.65-.839-1.046-.926-2.368-2.478-2.938-3.449-1.168-1.994-1.706-2.397-.762-.572m-50.904 1.605c0 .77.082 1.085.183.7.1-.385.1-1.015 0-1.4-.101-.385-.183-.07-.183.7m123.694 3.262c-1.365 1.408-1.873 2.109-1.187 1.639 1.138-.78 2.182-1.834 3.368-3.401 1.027-1.357.181-.673-2.181 1.762m42.923 2.138c.11 2.42.265 4.475.345 4.567.28.322.095-5.786-.224-7.367-.201-.998-.246.056-.121 2.8m-157.082-2.167c.016.532.191 1.327.391 1.767.252.558.288.315.119-.8-.283-1.857-.551-2.364-.51-.967m-9.135.767c0 .77.082 1.085.183.7.1-.385.1-1.015 0-1.4-.101-.385-.183-.07-.183.7m25.407-.118a5.661 5.661 0 0 0 1.8 0c.495-.095.09-.173-.9-.173s-1.395.078-.9.173m17.858.836c.569 1.102.552 1.135-1.189 2.236-.971.615-1.877 1.297-2.012 1.515-.135.219.758-.268 1.985-1.083l2.23-1.48-.596-1.153c-.328-.634-.687-1.153-.797-1.153-.11 0 .061.503.379 1.118m113.304.282c.134.88.31 1.675.391 1.767.303.343.076-1.799-.272-2.567-.252-.558-.288-.315-.119.8m-133.687.3-1.175 1.3 1.3-1.175c.715-.646 1.3-1.231 1.3-1.3 0-.309-.33-.037-1.425 1.175m6.219-.253c.547.634 1.145 1.333 1.331 1.553.185.22.13-.06-.123-.622-.252-.561-.851-1.26-1.33-1.552-.8-.487-.79-.436.122.621m-28.64 1.653c.133.699-.022.91-.691.946-.738.04-.755.075-.121.238 1.002.258 1.446-.31 1.004-1.284-.335-.739-.349-.731-.192.1m20.479.863c-.38.42-1.224.985-1.875 1.254-.651.27-1.105.57-1.008.666.281.281 2.382-.923 3.213-1.842.419-.463.671-.841.561-.841-.11 0-.511.344-.891.763m79.898 3.547a613.776 613.776 0 0 1-4.5 6.644c-1.756 2.534-1.982 3.156-1.014 2.784.339-.13.55-.437.468-.682-.081-.245.681-1.618 1.694-3.051a407.5 407.5 0 0 0 4.212-6.117c1.303-1.932 2.558-3.441 2.789-3.355 1.52.569 2.347.624 1.22.081-1.82-.877-1.802-.89-4.869 3.696m22.574-4.027c.497.096 1.217.092 1.6-.008.382-.1-.025-.179-.905-.174-.88.004-1.193.086-.695.182m-92.604 1.517c.004.88.086 1.193.182.695.096-.497.092-1.217-.008-1.6-.1-.382-.179.025-.174.905m96.23-.285c.588.614 1.298 1.469 1.577 1.9.436.673.443.642.05-.215-.519-1.133-1.946-2.8-2.397-2.8-.165 0 .182.502.77 1.115M111.2 193.2c-.804.257-.843.323-.2.332.44.006 1.16-.143 1.6-.332 1.019-.438-.032-.438-1.4 0m113.1.156c1.228.209 2.972.209 4.2 0 1.881-.319 1.661-.356-2.1-.356s-3.981.037-2.1.356m10.349 1.659c-.137.358-.226 1.221-.199 1.918.042 1.054.1.965.349-.533.318-1.914.26-2.452-.15-1.385m37.005.452a8.132 8.132 0 0 1-.284 1.6c-.218.694-.206.695.226.021.251-.391.379-1.111.285-1.6-.172-.887-.172-.887-.227-.021m-167.462 1.078c-2.216 1.492-6.395 5.823-7.515 7.787-1.014 1.781-.537 1.587.573-.232 1.35-2.211 4.981-5.908 7.204-7.335 1.68-1.078 2.253-1.565 1.841-1.565-.058 0-1.005.605-2.103 1.345m176.709.455c.004.88.086 1.193.182.695.096-.497.092-1.217-.008-1.6-.1-.382-.179.025-.174.905M141.4 200.286c-1.32 1.238-1.86 1.876-1.2 1.417 1.151-.799 4.148-3.722 3.778-3.685-.098.01-1.258 1.031-2.578 2.268m23.645-1.558c-.112.18.328.249.976.154.649-.095 1.179-.242 1.179-.327 0-.305-1.957-.148-2.155.173m3.055-.052c1.108.289.583 1.321-5.867 11.524-.695 1.1-2.419 3.935-3.831 6.3-3.003 5.029-3.575 5.273-3.597 1.533-.003-.531-.102-.869-.221-.75-.119.119-.094 1.413.056 2.877l.273 2.66.884-1.31c.486-.72 1.746-2.75 2.8-4.51 3.299-5.51 7.447-12.298 9.102-14.896 1.603-2.517 1.742-3.744.414-3.658-.668.044-.669.058-.013.23m-5.7 1.368c-.55.454-.774.709-.499.566 2.305-1.191 2.625-1.404 2.099-1.399-.33.004-1.05.378-1.6.833m117.8.356c-.152.691-.193 1.341-.091 1.442.102.102.3-.389.441-1.092.333-1.667.01-1.99-.35-.35m-44.322.595c.366.767.736 1.324.823 1.237.183-.183-1.031-2.632-1.305-2.632-.101 0 .116.628.482 1.395m9.802-.395c0 .44.144 1.25.32 1.8.254.792.32.833.32.2 0-.44-.144-1.25-.32-1.8-.254-.792-.32-.833-.32-.2m23.77.9c-.313.605-1.326 2-2.249 3.1l-1.68 2 1.862-1.964c1.691-1.783 3.334-4.236 2.838-4.236-.11 0-.457.495-.771 1.1m-109.453.214c-1.152 1.017-2.607 2.686-2.342 2.686.098 0 .973-.81 1.945-1.8 1.869-1.904 2.077-2.369.397-.886m-45.682 1.014c-.377.15 1.101.272 3.285.272s3.662-.122 3.285-.272c-.377-.149-1.855-.272-3.285-.272-1.43 0-2.908.123-3.285.272m100.485.845c-.667.195-.181.282 1.459.26 1.352-.018 2.252-.165 2-.327-.56-.358-2.111-.328-3.459.067m22.183 2.741c-.011 1.81.097 2.67.26 2.084.36-1.294.375-3.612.029-4.481-.15-.376-.28.703-.289 2.397M125 204.4c.44.189 1.07.344 1.4.344.378 0 .304-.127-.2-.344-.44-.189-1.07-.344-1.4-.344-.378 0-.304.127.2.344m8.8 0c-.504.217-.578.344-.2.344.33 0 .96-.155 1.4-.344.504-.217.578-.344.2-.344-.33 0-.96.155-1.4.344m-5.1.689c.715.089 1.885.089 2.6 0 .715-.088.13-.161-1.3-.161-1.43 0-2.015.073-1.3.161m27.855.723c-.365.557-.591 1.086-.502 1.175.089.089.465-.367.836-1.013.825-1.438.58-1.557-.334-.162m122.117-.455c-.203.529.507 1.331 2.349 2.654.451.324.181.008-.6-.703-.782-.711-1.368-1.566-1.303-1.9.147-.762-.16-.797-.446-.051m-32.226.352c-.044.681 3.187 3.096 4.132 3.087.232-.002-.509-.537-1.647-1.19-1.138-.653-2.152-1.506-2.253-1.896-.177-.679-.187-.679-.232-.001m-140.137 1.816c-.99 1.058-2.01 2.363-2.266 2.9l-.466.975.71-1c.391-.55 1.501-1.855 2.467-2.9.965-1.045 1.665-1.9 1.555-1.9-.11 0-1.01.866-2 1.925M221 208.4c0 1.278.132 2.116.294 1.862.162-.254.294-1.092.294-1.862s-.132-1.608-.294-1.862c-.162-.254-.294.584-.294 1.862m38 .8c-1.107.282-1.123.309-.2.347.55.022 1.27-.134 1.6-.347.681-.44.329-.44-1.4 0M145.301 211c.004.88.086 1.193.182.695.096-.497.092-1.217-.008-1.6-.1-.382-.179.025-.174.905m9.348-.785c-.137.358-.231 1.041-.208 1.518.026.548.162.353.369-.53.35-1.487.255-2.07-.161-.988m28.363 2.527c-1.534 1.682-5.224 5.63-8.2 8.773-2.977 3.143-5.474 5.933-5.55 6.2-.137.48.59-.248 5.314-5.316 1.333-1.431 4.462-4.739 6.952-7.351l4.528-4.749-.209 3.95c-.153 2.881-.114 3.464.142 2.151.439-2.247.514-6.814.111-6.758-.165.022-1.555 1.417-3.088 3.1m102.396-.242c.859 1.045 1.626 1.9 1.704 1.9.286 0-1.451-2.222-2.346-3-.506-.44-.217.055.642 1.1m-65.228-.868c-.147.238-.833.778-1.524 1.199-.691.421-1.034.767-.762.768.512.001 3.319-2.367 2.83-2.387-.152-.007-.397.183-.544.42m-127.151.997c-.148.586-.191 1.143-.097 1.237.095.094.292-.308.439-.895.148-.586.191-1.143.097-1.237-.095-.094-.292.308-.439.895m9.836-.012c-.67 1.471-.542 1.785.182.448.339-.625.541-1.211.449-1.302-.091-.092-.375.293-.631.854m111.535 1.401c-.438.297-.276.334.6.138 1.471-.329 1.79-.558.767-.55-.422.003-1.037.189-1.367.412m55.788.841c-.865.645-2.521 1.637-3.68 2.204-1.16.567-2.108 1.102-2.108 1.189 0 .373 3.087-1.178 5.156-2.589 1.234-.842 2.469-1.456 2.744-1.364.665.223.646-.157-.02-.413-.286-.11-1.227.328-2.092.973m-38.543 1.061c-1.125 1.057-2.038 2.182-2.029 2.5.009.319.281.091.605-.506.324-.597 1.423-1.722 2.442-2.5 1.019-.778 1.667-1.414 1.44-1.414-.227 0-1.333.864-2.458 1.92M101.8 215.6c-.152.691-.193 1.341-.091 1.442.102.102.3-.389.441-1.092.333-1.667.01-1.99-.35-.35m172.84-.05c1.9 1.401 3.698 3.319 5.105 5.443.58.876 1.055 1.445 1.055 1.263 0-1.423-6.07-7.856-7.414-7.856-.168 0 .396.518 1.254 1.15M92.287 217.9c-.125 1.705-.098 4.36.06 5.9.236 2.286.292 1.717.309-3.1.024-6.695-.045-7.211-.369-2.8m194.916-3.01c-.002.16.356.88.796 1.6.439.721.797 1.13.797.91-.001-.22-.359-.94-.796-1.6-.437-.66-.796-1.069-.797-.91m-78.581 2.867c-.966.966-2.044 2.361-2.395 3.1-.351.739-.411.99-.133.558.278-.432 1.478-1.827 2.667-3.1 2.527-2.708 2.424-3.121-.139-.558m34.528-.057c-.263.495-1.664 2.147-3.114 3.671-2.175 2.286-2.332 2.532-.899 1.404 1.857-1.462 5.407-5.975 4.701-5.975-.116 0-.425.405-.688.9m2.261-.354c.434.3 1.239.667 1.789.814.575.155.332-.078-.571-.546-1.811-.938-2.361-1.059-1.218-.268M101.32 220.4c0 1.21.075 1.705.167 1.1a8.899 8.899 0 0 0 0-2.2c-.092-.605-.167-.11-.167 1.1m160.88-1.6c-.504.217-.578.344-.2.344.33 0 .96-.155 1.4-.344.504-.217.578-.344.2-.344-.33 0-.96.155-1.4.344m-77.173 3.238c-.17 1.671-.232 3.381-.137 3.8.095.419.312-.605.483-2.276.17-1.671.232-3.381.137-3.8-.095-.419-.312.605-.483 2.276m67.215-2.361c.857.152 2.548.277 3.758.277s2.901-.125 3.758-.277c.939-.167-.555-.277-3.758-.277s-4.697.11-3.758.277m-22.63 2.217c-.007.271.483 1 1.088 1.619.605.619.81.757.455.306a14.52 14.52 0 0 1-1.088-1.619c-.244-.44-.448-.578-.455-.306m60.844.506c0 .33.155.96.344 1.4.217.504.344.578.344.2 0-.33-.155-.96-.344-1.4-.217-.504-.344-.578-.344-.2m-188.85 2.033c.003.532.183 1.237.4 1.567.276.422.317.185.136-.8-.317-1.725-.544-2.051-.536-.767m102.65.851c-.135.504-.229 1.276-.21 1.716.019.44.199.098.4-.76.39-1.662.224-2.5-.19-.956m-64.315 2.269c1.462 1.514 3.199 3.058 3.859 3.431 1.179.665 1.182.664.2-.038-.55-.393-2.187-1.937-3.638-3.43-1.45-1.494-2.737-2.716-2.859-2.716-.122 0 .975 1.239 2.438 2.753m12.639-2.392c-.209.199-.74.448-1.18.554-.723.174-.713.197.1.239 1.04.053 1.114.359.353 1.457-1.779 2.568-3.433 5.389-3.159 5.389.291 0 4.906-7.335 4.906-7.799 0-.326-.609-.23-1.02.16m129.088.039c.02 1.039.65 2.746.664 1.8.006-.44-.143-1.16-.332-1.6-.211-.49-.339-.568-.332-.2m9.691 5.6c0 3.19.062 4.495.138 2.9a73.8 73.8 0 0 0 0-5.8c-.076-1.595-.138-.29-.138 2.9m-100.62 1.9c-2.021 3.025-4.38 6.459-5.242 7.631-.863 1.172-1.481 2.218-1.375 2.324.191.192 2.122-2.519 7.082-9.941 2.998-4.488 3.102-4.551 3.302-2.014.124 1.577.162 1.441.222-.8.092-3.467.292-3.607-3.989 2.8m-6.528-2.232c-.165 1.687-.214 3.307-.11 3.6.105.293.324-.849.488-2.536.165-1.687.214-3.307.11-3.6-.105-.293-.324.849-.488 2.536M203.72 230c0 1.21.075 1.705.167 1.1a8.899 8.899 0 0 0 0-2.2c-.092-.605-.167-.11-.167 1.1m78.8.8c0 1.21.075 1.705.167 1.1a8.899 8.899 0 0 0 0-2.2c-.092-.605-.167-.11-.167 1.1m-112.027.4c0 .77.082 1.085.183.7.1-.385.1-1.015 0-1.4-.101-.385-.183-.07-.183.7M104 230.619c0 .53 2.992 3.859 4.162 4.633.982.648 1.066.664.409.076-.456-.407-1.671-1.689-2.7-2.848-1.029-1.159-1.871-1.996-1.871-1.861m42 1.581c.55.314 1.27.571 1.6.57.33-.001-.006-.264-.746-.586-1.703-.739-2.16-.731-.854.016m-13.213 1.582c1.091 1.52 3.406 3.88 4.613 4.703.683.465.453.15-.535-.734a51.85 51.85 0 0 1-3.2-3.169c-.806-.889-1.201-1.249-.878-.8m62.106.618c0 .77.082 1.085.183.7.1-.385.1-1.015 0-1.4-.101-.385-.183-.07-.183.7m9.272 1.299c.026 1.967.124 2.433.362 1.719.18-.54.164-1.754-.035-2.7-.345-1.637-.36-1.591-.327.981m77.889-1.432a8.132 8.132 0 0 1-.284 1.6c-.218.694-.206.695.226.021.251-.391.379-1.111.285-1.6-.172-.887-.172-.887-.227-.021M95.8 235.2c.341.66.711 1.2.821 1.2.11 0-.08-.54-.421-1.2-.341-.66-.711-1.2-.821-1.2-.11 0 .08.54.421 1.2m71.723 1.009c-1.032.985-1.744 1.791-1.583 1.791.161 0 1.088-.81 2.06-1.8 2.277-2.32 1.958-2.314-.477.009m15.936 1.491c-.344 2.867-.323 5.9.041 5.898.165-.001.351-1.801.413-4 .124-4.386-.062-5.162-.454-1.898m11.934-.1c.161.55.551 1.27.867 1.6.417.435.388.216-.104-.8-.867-1.788-1.134-2.067-.763-.8m85.722-.19a39.61 39.61 0 0 1-.495 1.59c-.149.44.022.294.38-.324s.581-1.334.495-1.59c-.085-.256-.256-.11-.38.324m9.485.99c-.152.691-.193 1.341-.091 1.442.102.102.3-.389.441-1.092.141-.703.181-1.352.091-1.442-.091-.091-.289.401-.441 1.092m-191.912 1c1.356 1.76 3.251 3.632 3.41 3.368.056-.092-.965-1.248-2.27-2.568-1.698-1.719-2.022-1.946-1.14-.8m62.512 1.4c-.77.422-1.256.774-1.08.783.424.022 2.68-1.151 2.68-1.393 0-.262-.023-.253-1.6.61m118.36.075c-.258.482-1.293 1.787-2.3 2.9l-1.831 2.025 1.797-1.697c1.641-1.548 3.515-4.103 3.011-4.103-.115 0-.42.394-.677.875m-137.001.658c.155.251-.455 1.719-1.356 3.262l-1.638 2.805h-13.183c-14.44 0-13.966.087-12.535-2.314l.648-1.086-.847 1c-2.18 2.572-2.1 2.589 12.764 2.705l13.412.105 1.588-2.705c1.868-3.183 1.989-3.534 1.348-3.93-.306-.189-.38-.131-.201.158m10.329 3.378c-1.368 1.381-2.488 2.641-2.488 2.8 0 .159 12.465.246 27.7.193l27.7-.096-27.288-.204-27.288-.204 1.888-2.088c1.208-1.336 2.392-2.223 3.288-2.464l1.4-.376-1.212-.036c-.978-.029-1.69.447-3.7 2.475m135.79-1.106c-.366.767-.583 1.395-.482 1.395.274 0 1.488-2.449 1.305-2.632-.087-.087-.457.47-.823 1.237m-185.599-.19c.263.339.543 1.779.623 3.2l.144 2.585.077-2.651c.061-2.111-.066-2.763-.623-3.2-.614-.481-.641-.473-.221.066m183.196 4.256c-.822 1.249-1.166 1.974-.764 1.61.688-.623 2.703-3.881 2.4-3.881-.077 0-.813 1.022-1.636 2.271M261.6 247.6l-10.6.22 10.4.084c6.188.05 10.643-.073 11-.304.33-.213.42-.35.2-.304-.22.046-5.17.183-11 .304m-12.497 1.3c-.518.495-.663.7-.323.456.341-.244.98-.644 1.42-.888.44-.244.585-.449.322-.456-.262-.007-.901.393-1.419.888m-40.479 1.601c1.087 1.174 2.04 2.093 2.117 2.042.258-.168-2.874-3.708-3.489-3.945-.332-.127.285.729 1.372 1.903m71.776 3.548c-1.394 1.222-1.395 1.223-.112.37.708-.471 1.394-1.028 1.524-1.238.385-.624.065-.427-1.412.868m-67.98.524c2.42 2.91 3.98 4.608 3.977 4.328-.002-.165-1.127-1.483-2.5-2.928-1.374-1.446-2.038-2.076-1.477-1.4m-106.408-.714c-.012.474 2.596 2.944 3.102 2.937.157-.003-.296-.464-1.008-1.024-.711-.561-1.47-1.324-1.687-1.696-.217-.372-.4-.47-.407-.217M277.2 256c-.77.422-1.256.774-1.08.783.424.022 2.68-1.151 2.68-1.393 0-.262-.023-.253-1.6.61m-165.1 1.876c.385.1 1.015.1 1.4 0 .385-.101.07-.183-.7-.183s-1.085.082-.7.183m24.473 4.424a862.861 862.861 0 0 1-7.603 8.1c-5.094 5.329-6.551 6.952-6.389 7.114.082.083 1.47-1.259 3.084-2.982 12.005-12.812 15.253-16.132 15.784-16.132.277 0 .615-.18.751-.4 1.315-2.128-2.071.459-5.627 4.3m-4.013-3.964c.114.184-1.427 3.019-3.425 6.3-6.692 10.986-8.335 13.78-8.335 14.173 0 1.077 1.406-.266 1.483-1.416.053-.809.403-1.421 6.518-11.393 5.383-8.78 4.972-8 4.215-8-.365 0-.57.151-.456.336m123.105.681c-.256.561-.458 1.237-.449 1.502.008.264.281-.131.606-.88.683-1.574.539-2.149-.157-.622m-37.842 1.761c2.085 2.591 3.376 4.023 3.367 3.736-.005-.173-.95-1.314-2.1-2.536-1.149-1.223-1.72-1.763-1.267-1.2m-14.213-.479c.005.165.95 1.302 2.1 2.525 2.206 2.349 1.866 1.739-.628-1.125-.815-.936-1.478-1.566-1.472-1.4m19.007 6.072c1.589 2.002 4.183 4.807 4.18 4.52-.002-.16-1.127-1.474-2.5-2.92-1.374-1.446-2.129-2.166-1.68-1.6m-14.214-.462c.002.16 1.127 1.474 2.5 2.92 2.58 2.717 2.134 1.999-.82-1.32-.926-1.04-1.681-1.76-1.68-1.6m19.615 6.667c1.218 1.623 3.582 4.221 3.572 3.925-.005-.165-.95-1.302-2.1-2.525-1.149-1.224-1.812-1.854-1.472-1.4m-14.008-.277c.005.165.95 1.302 2.1 2.525 2.206 2.349 1.866 1.739-.628-1.125-.815-.936-1.478-1.566-1.472-1.4m19.93 7.144c2.738 3.279 3.18 3.63 3.505 2.785.139-.364.142-.775.004-.912-.137-.137-.256.096-.265.517-.011.559-.732.006-2.649-2.033-2.587-2.75-2.598-2.757-.595-.357m-15.137-1.544c.002.165 1.127 1.483 2.5 2.928 2.411 2.537 2.07 2.028-1.023-1.528-.814-.936-1.478-1.566-1.477-1.4m5.607 6.387c.005.173.95 1.314 2.1 2.536 2.031 2.16 1.789 1.772-.833-1.336-.702-.833-1.273-1.373-1.267-1.2m4.8 5.613c.005.165.95 1.302 2.1 2.525 2.206 2.349 1.866 1.739-.628-1.125-.815-.936-1.478-1.566-1.472-1.4"/><path fill="#8c7c8c" d="M175.8 147.576c-1.017.167.003.267 2.8.275 3.273.009 3.939-.065 2.6-.29-2.091-.351-3.191-.348-5.4.015m39.8.005c-.891.175.054.275 2.6.274 2.966 0 3.586-.079 2.4-.304-1.872-.357-3.072-.349-5 .03m-44 .819c-.795.514.204.514 1.4 0l.8-.344-.8-.022c-.44-.012-1.07.153-1.4.366m12.6 0c1.196.514 2.195.514 1.4 0-.33-.213-.96-.378-1.4-.366l-.8.022.8.344m27.2 0c-.504.217-.578.344-.2.344.33 0 .96-.155 1.4-.344.504-.217.578-.344.2-.344-.33 0-.96.155-1.4.344m12 0c1.196.514 2.195.514 1.4 0-.33-.213-.96-.378-1.4-.366l-.8.022.8.344m-56.2 2.033-1 .815 1.3-.634c.715-.349 1.3-.72 1.3-.824 0-.398-.637-.142-1.6.643m22.8.111c0 .095.874.733 1.942 1.419 1.068.685 2.266 1.604 2.662 2.042.396.437.885.795 1.087.795.447 0-.187-.622-2.291-2.248-1.655-1.279-3.4-2.309-3.4-2.008m14.968.903c-2.668 1.811-3.342 2.344-3.355 2.652-.01.232 4.369-2.773 5.154-3.537.517-.503-.464-.02-1.799.885m24.276-.87c.568.568 3.276 2.236 3.411 2.101.179-.178-2.875-2.278-3.313-2.278-.151 0-.196.08-.098.177m-64.69 1.511c-2.187 1.682-5.307 5.263-6.781 7.784-1.751 2.993-1.58 2.961-4.626.892-1.325-.9-2.476-1.569-2.558-1.486-.082.082 1.101.992 2.628 2.022 2.101 1.417 2.876 1.754 3.184 1.386.224-.267 1.273-1.836 2.331-3.486 1.058-1.65 3.152-4.125 4.654-5.5 2.767-2.534 3.271-3.23 1.168-1.612M135.4 157.2c-.729.313-.712.344.2.344.55 0 1.36-.155 1.8-.344.729-.313.712-.344-.2-.344-.55 0-1.36.155-1.8.344m7.4 0c.55.176 1.45.32 2 .32h1l-1-.32c-.55-.176-1.45-.32-2-.32h-1l1 .32m33.115-.072c-.377.15.883.282 2.8.293 1.988.012 3.055-.099 2.485-.26-1.291-.363-4.404-.383-5.285-.033m39.363.012c-.507.143.836.266 2.983.274 2.148.008 3.463-.109 2.922-.26-1.245-.347-4.695-.355-5.905-.014m-83.625 1.113c-2.064.901-1.266 1.029.971.156 1.087-.424 1.616-.765 1.176-.758-.44.008-1.406.279-2.147.602m92.115.161c.863.431 1.655.696 1.762.59.197-.198-2.452-1.417-3.017-1.388-.172.009.393.368 1.255.798m-14.568 1.345c-1.997 1.486-3.539 3.077-4.594 4.741-1.093 1.722-.437 1.288.74-.49.929-1.404 3.488-3.687 5.701-5.086.414-.263.573-.483.353-.491-.22-.007-1.21.59-2.2 1.326m-41.685 2.216c-1.493 1.526-2.706 3.011-2.694 3.3.012.289.316.075.676-.475.36-.55 1.694-2.035 2.964-3.3 1.27-1.265 2.188-2.3 2.04-2.3-.149 0-1.492 1.249-2.986 2.775M127 160.757c-.66.415-2.37 1.984-3.8 3.488l-2.6 2.734 3-2.8c1.65-1.539 3.45-3.1 4-3.468 1.378-.922.879-.883-.6.046m60.2-.696c0 .125.81 1.098 1.8 2.161s1.8 1.755 1.8 1.539c0-.217-.81-1.189-1.8-2.161s-1.8-1.664-1.8-1.539m52.414.999c-.008.253.434 1.423.982 2.6s.988 1.87.977 1.54c-.023-.736-1.939-4.784-1.959-4.14m14.186 3.34c-1.217.218-.699.3 2.167.343 2.071.031 3.691-.009 3.6-.089-.394-.344-4.3-.516-5.767-.254m-4.2.8c-.795.514.204.514 1.4 0l.8-.344-.8-.022c-.44-.012-1.07.153-1.4.366m11.6 0c.33.213.96.378 1.4.366l.8-.022-.8-.344c-1.196-.514-2.195-.514-1.4 0m-15.3 1.426c-1.045.544-1.9 1.079-1.9 1.188 0 .11.855-.228 1.9-.751s2.17-1.052 2.5-1.175c.533-.2.533-.226 0-.238-.33-.007-1.455.432-2.5.976m19.724.126c4.197 2.085 7.365 4.748 10.289 8.648.833 1.111.867 1.123.457.16-1.226-2.876-10.392-10.089-12.627-9.937-.189.013.658.521 1.881 1.129m-23.981-.712c-.224 1.264 1.229 3.215 1.757 2.36.136-.22.001-.4-.299-.4-.301 0-.742-.495-.981-1.1-.239-.605-.454-.992-.477-.86m-105.843.76-.8.344h.8c.44 0 1.16-.155 1.6-.344l.8-.344h-.8c-.44 0-1.16.155-1.6.344m7 0c1.368.438 2.419.438 1.4 0-.44-.189-1.16-.338-1.6-.332-.643.009-.604.075.2.332m-11.1 1.967c-2.344 1.515-4.887 4.407-6.253 7.113-1.134 2.245-.685 2.004.658-.353 1.985-3.484 6.198-7.527 7.843-7.527.223 0 .516-.18.652-.4.481-.778-.505-.381-2.9 1.167m31.729-.138c-.148.586-.191 1.143-.097 1.237.095.094.292-.308.439-.895.148-.586.191-1.143.097-1.237-.095-.094-.292.308-.439.895m38.762.591c-.404.896-1.078 1.812-1.497 2.037-.419.224-.658.512-.531.64.388.388 1.868-1.197 2.475-2.65.817-1.955.433-1.978-.447-.027m-54.195-.537c2.148 1.546 4.189 3.597 5.271 5.295.623.978 1.133 1.499 1.133 1.158 0-.867-4.426-5.585-6.054-6.453-1.294-.69-1.308-.69-.35 0m-29.665 1.817c-.76 1.221-1.592 3.172-1.424 3.341.076.075.62-.848 1.211-2.052 1.102-2.248 1.208-2.885.213-1.289m115.275-.2c.018.877.782 1.459.788.6.003-.495-.174-.9-.394-.9-.22 0-.397.135-.394.3m-70.881 2.172c-.088.919-.039 2.404.108 3.3.209 1.275.278.912.317-1.672.054-3.532-.164-4.366-.425-1.628m71.803 3.128c0 1.43.073 2.015.161 1.3.089-.715.089-1.885 0-2.6-.088-.715-.161-.13-.161 1.3m-118.299-.171c-.148.586-.191 1.143-.097 1.237.095.094.292-.308.439-.895.148-.586.191-1.143.097-1.237-.095-.094-.292.308-.439.895m136.088.099c-.375.15 1.194.272 3.486.272 2.293 0 3.86-.122 3.483-.272-.377-.149-1.946-.272-3.486-.272-1.54 0-3.107.123-3.483.272m-3.917 1.504c-2.339 1.329-3.907 2.85-6.985 6.777-2.455 3.131-4.605 5.298-6.619 6.67-.548.373-.778.688-.511.7.789.034 5.537-4.636 7.886-7.758 2.607-3.464 4.591-5.272 6.909-6.297.946-.419 1.72-.843 1.72-.943 0-.373-.652-.142-2.4.851m29.027.968c.825 1.712.976 1.894.964 1.167-.005-.312-.376-1.017-.824-1.567l-.815-1 .675 1.4m-162.049.578c-.151.803-.184 1.549-.074 1.659.11.11.323-.456.474-1.259.15-.803.184-1.55.074-1.66-.11-.11-.324.457-.474 1.26m150.274.563c1.018.901 2.437 2.55 3.151 3.664.715 1.114 1.386 1.939 1.492 1.833.48-.48-3.251-4.935-5.295-6.322-.66-.448-.367-.077.652.825m-141.379-.588c-.15.392-.262 1.013-.248 1.38.017.442.156.341.412-.299.212-.531.324-1.152.248-1.38-.076-.227-.261-.093-.412.299m30.173.247c-.019.55.141 1.27.354 1.6.494.764.494-.058 0-1.6l-.32-1-.034 1m8.764 0c-.036 2.36 4.743 8.997 7.377 10.244l1.213.574-.996-.709c-3.37-2.398-5.038-4.518-6.662-8.466-.508-1.234-.927-1.973-.932-1.643m70.79-.13c0 .221-.762 1.18-1.694 2.131-.958.977-1.313 1.524-.816 1.258 1.078-.577 3.117-3.185 2.766-3.537-.141-.14-.256-.074-.256.148m45.113 3.149c.371 1.001.726 1.663.79 1.472.128-.385-1.01-3.291-1.289-3.291-.097 0 .128.819.499 1.819M123.482 183.3c-.125 1.155-.091 2.82.075 3.7.234 1.238.308.762.325-2.1.026-4.212-.073-4.609-.4-1.6m31.905-.818c.309 1.524 1.001 3.263 1.215 3.05.098-.099-.184-1.069-.628-2.156-.443-1.087-.708-1.489-.587-.894m-40.453 2.318c0 1.65.071 2.325.157 1.5.087-.825.087-2.175 0-3-.086-.825-.157-.15-.157 1.5m110.766-1.313a8.899 8.899 0 0 0 2.2 0c.605-.092.11-.167-1.1-.167-1.21 0-1.705.075-1.1.167m54.38 1.113c0 .44.144 1.25.32 1.8.254.792.32.833.32.2 0-.44-.144-1.25-.32-1.8-.254-.792-.32-.833-.32-.2m-123.266 1.6c0 .22.534 1.3 1.186 2.4.652 1.1 1.186 1.82 1.186 1.6 0-.22-.534-1.3-1.186-2.4-.652-1.1-1.186-1.82-1.186-1.6m114.42 1.4c.012.33.177.96.366 1.4l.344.8.022-.8c.012-.44-.153-1.07-.366-1.4-.345-.533-.385-.533-.366 0m9.71 4.4c0 2.09.068 2.945.15 1.9a29.38 29.38 0 0 0 0-3.8c-.082-1.045-.15-.19-.15 1.9m-143.814-.77c-1.698 1.924-2.603 2.588-4.338 3.187-1.265.437-1.805.762-1.276.77 1.519.022 3.947-1.47 5.561-3.416.838-1.009 1.973-2.084 2.523-2.387.7-.386.801-.557.338-.568-.364-.009-1.628 1.078-2.808 2.414m5.47-1.962c.44.244 1.16.733 1.6 1.085.545.437.491.292-.17-.456-.533-.603-1.253-1.092-1.6-1.085-.477.009-.436.12.17.456m-27.344.532c0 .44.155 1.16.344 1.6l.344.8v-.8c0-.44-.155-1.16-.344-1.6l-.344-.8v.8m8.8-.2c0 .33.155.96.344 1.4.217.504.344.578.344.2 0-.33-.155-.96-.344-1.4-.217-.504-.344-.578-.344-.2m148.078 3.6c0 1.65.071 2.325.157 1.5.087-.825.087-2.175 0-3-.086-.825-.157-.15-.157 1.5m-127.034-.206c.358 3.171-3.039 7.314-8.049 9.817-1.308.654-2.164 1.189-1.902 1.189 4.468 0 13.086-10.724 10.101-12.569-.193-.119-.26.584-.15 1.563m86.1-.94c-1.03.442-1.337.679-.718.556 1.425-.285 3.118-.936 3.118-1.2 0-.316-.426-.201-2.4.644m-75.4.847c-2.499 1.824-7.408 7.625-6.89 8.142.103.103.77-.721 1.482-1.831.712-1.11 2.557-3.186 4.1-4.615 2.972-2.751 3.253-3.115 1.308-1.696m65.4-.501c.33.213.87.388 1.2.388.533 0 .533-.043 0-.388-.33-.213-.87-.388-1.2-.388-.533 0-.533.043 0 .388m15.055.655c-.58.58-1.05 1.255-1.043 1.5.007.245.203.118.435-.282.233-.4.992-1.075 1.688-1.499.747-.455 1.001-.772.62-.773-.355 0-1.12.474-1.7 1.054m4.145-.62c.55.212 1.421.875 1.936 1.475.735.857.841.902.496.211-.525-1.055-1.974-2.131-2.821-2.096-.336.014-.161.199.389.41m-127.8.765-.8.344h.8c.44 0 1.16-.155 1.6-.344l.8-.344h-.8c-.44 0-1.16.155-1.6.344m112.7-.113a8.899 8.899 0 0 0 2.2 0c.605-.092.11-.167-1.1-.167-1.21 0-1.705.075-1.1.167m-116.447 1.166c-.74.323-1.261.672-1.158.775.104.104.98-.162 1.947-.591.967-.429 1.488-.779 1.158-.776-.33.002-1.206.269-1.947.592m18.137.531c.142.229.727.416 1.3.416 1.254 0 1.109-.192-.424-.56-.743-.178-1.045-.129-.876.144m-21.39 1.249-1 .815 1.3-.634c.715-.349 1.3-.72 1.3-.824 0-.398-.637-.142-1.6.643m129.309.767c0 .99.078 1.395.173.9a5.661 5.661 0 0 0 0-1.8c-.095-.495-.173-.09-.173.9m-133.296 2.252c-1.338 1.239-2.805 2.814-3.261 3.5-.53.801-.252.603.778-.552.882-.99 2.474-2.561 3.537-3.492 1.063-.93 1.808-1.695 1.656-1.7-.153-.004-1.372 1.006-2.71 2.244M271.4 197.6c-.15.473-.183.95-.073 1.06.11.11.323-.187.473-.66.15-.473.183-.95.073-1.06-.11-.11-.323.187-.473.66m9.049.2a17.47 17.47 0 0 1-.266 1.8l-.206 1 .429-.981c.236-.54.355-1.35.266-1.8-.159-.798-.165-.798-.223-.019m-113.949.476c.385.1 1.015.1 1.4 0 .385-.101.07-.183-.7-.183s-1.085.082-.7.183m68.7.714c0 .105.359.78.799 1.5.939 1.541 1.07 1.191.191-.51-.549-1.061-.99-1.502-.99-.99m9.628.086c.09 1.039.716 1.92.744 1.048.015-.482-.152-.988-.372-1.124-.22-.136-.387-.102-.372.076m-82.645.638c-2.497 1.485-6.183 5.367-6.183 6.512 0 .175.719-.645 1.597-1.822s2.434-2.735 3.457-3.463c2.489-1.769 3.03-2.357 1.129-1.227m108.095.891c-.366.767-.583 1.395-.482 1.395.274 0 1.488-2.449 1.305-2.632-.087-.087-.457.47-.823 1.237m9.151 1.624c-.148.586-.191 1.143-.097 1.237.095.094.292-.308.439-.895.148-.586.191-1.143.097-1.237-.095-.094-.292.308-.439.895m-33.624.521c.107.743.195 1.866.195 2.497 0 1.113 2.568 3.553 3.738 3.553.23 0-.427-.536-1.46-1.191-1.674-1.062-1.882-1.355-1.918-2.7-.022-.83-.199-1.959-.394-2.509-.304-.855-.327-.804-.161.35m-8.971-.35c.012.33.177.96.366 1.4l.344.8.022-.8c.012-.44-.153-1.07-.366-1.4-.345-.533-.385-.533-.366 0M113 202.8c-.504.217-.578.344-.2.344.33 0 .96-.155 1.4-.344.504-.217.578-.344.2-.344-.33 0-.96.155-1.4.344m8 0c.44.189 1.07.344 1.4.344.378 0 .304-.127-.2-.344-.44-.189-1.07-.344-1.4-.344-.378 0-.304.127.2.344m146.2 1.963c-1.376 1.441-3.174 2.786-4.8 3.591-1.43.708-2.15 1.164-1.6 1.015 2.706-.735 6.238-3.295 8.044-5.831 1.147-1.611.859-1.396-1.644 1.225m-51.1-.887c.385.1 1.015.1 1.4 0 .385-.101.07-.183-.7-.183s-1.085.082-.7.183M96.704 204.9c-1.036 1.586-2.355 4.35-2.227 4.67.067.17.775-1.013 1.573-2.63 1.492-3.027 1.679-3.608.654-2.04m10.442 1.454c-2.206 2.022-5.137 6.189-4.676 6.649.082.082.658-.822 1.28-2.009 1.063-2.031 3.593-4.744 5.85-6.274.55-.373.801-.687.558-.699-.243-.012-1.599 1.039-3.012 2.333M126.2 204.4c.44.189 1.16.338 1.6.332.643-.009.604-.075-.2-.332-1.368-.438-2.419-.438-1.4 0m6 0-.8.344h.8c.44 0 1.16-.155 1.6-.344l.8-.344h-.8c-.44 0-1.16.155-1.6.344m79.475.273c-.949.336-1.645.691-1.546.789.098.098 1.234-.184 2.525-.628 1.29-.444 1.986-.799 1.546-.789-.44.01-1.576.293-2.525.628m7.65.293c1.015.94 1.264 1.554 1.635 4.034.099.66.129.249.068-.913-.11-2.052-1.283-4.087-2.356-4.087-.214 0 .08.435.653.966m59.075 1.375c0 .216.594.761 1.321 1.21 1.54.952 5.921 5.423 6.646 6.783.274.514.599.834.722.71.23-.23-1.684-2.713-3.734-4.844-1.728-1.796-4.955-4.309-4.955-3.859m-132.622 2.637c-.151.803-.184 1.549-.074 1.659.11.11.323-.456.474-1.259.15-.803.184-1.55.074-1.66-.11-.11-.324.457-.474 1.26m91.471-.978c-.033.33-.16 1.05-.282 1.6-.192.864-.16.903.232.288.249-.391.376-1.111.282-1.6-.095-.488-.199-.618-.232-.288m-82.649 1.2c-.15.473-.183.95-.073 1.06.11.11.323-.187.473-.66.15-.473.183-.95.073-1.06-.11-.11-.323.187-.473.66m99.7.839c.935.176 2.465.176 3.4 0 1.423-.267 1.147-.319-1.7-.319s-3.123.052-1.7.319m-160.433.628c-.147.146-.256.641-.242 1.1.024.766.057.756.409-.125.392-.979.31-1.453-.167-.975m125.767 1.086-.965 1.247 1.144-1.088c.63-.598 1.064-1.159.966-1.247-.099-.088-.614.402-1.145 1.088M153.85 213.3c-.132.935-.095 2.6.083 3.7.287 1.772.325 1.579.33-1.7.007-4.134-.063-4.471-.413-2m-8.516 1.9c0 1.65.071 2.325.157 1.5.087-.825.087-2.175 0-3-.086-.825-.157-.15-.157 1.5M93 214c-.152.691-.193 1.341-.091 1.442.102.102.3-.389.441-1.092.333-1.667.01-1.99-.35-.35m123.4-.8-1 .32 1 .034c.55.019 1.27-.141 1.6-.354.764-.494-.058-.494-1.6 0m17.933.703c-.073.167-.903.906-1.845 1.643-2.561 2.005-3.606 4.709-2.493 6.454.263.412.307.132.142-.893-.348-2.169.485-3.75 2.925-5.553 1.176-.869 2.138-1.664 2.138-1.767 0-.308-.723-.211-.867.116m35.821.565c-1.625 1.223-2.091 1.705-1.154 1.192 1.04-.569 2.872-2.04 2.554-2.051-.135-.005-.765.382-1.4.859m-59.913 1.434c-1.078.824-2.405 2.128-2.948 2.898l-.988 1.4 1.258-1.465c.693-.806 2.154-2.04 3.248-2.742 1.094-.702 1.989-1.348 1.989-1.435 0-.427-.775-.02-2.559 1.344m66.399.742c.902.856 2.141 2.321 2.753 3.256 1.192 1.821 1.742 2.279.959.8-.796-1.505-3.133-4.197-4.275-4.924-.688-.439-.484-.125.563.868m-32.861-.338c-.232.162-.823.955-1.314 1.764-.491.808-1.977 2.473-3.302 3.7-1.325 1.226-2.248 2.23-2.051 2.23.482 0 5.438-5.171 6.038-6.3.263-.495.842-.9 1.288-.9.445 0 .698-.18.562-.4-.291-.471-.642-.498-1.221-.094m22.621.494c-.77.422-1.256.774-1.08.783.424.022 2.68-1.151 2.68-1.393 0-.262-.023-.253-1.6.61m-165.35.85c-.309 1.545-.26 4.631.094 5.892.146.518.265-.877.265-3.1 0-4.5-.007-4.552-.359-2.792m186.984-.65c0 .22.344 1.03.766 1.8.422.77.766 1.22.766 1 0-.22-.344-1.03-.766-1.8-.422-.77-.766-1.22-.766-1m-38.234 1.8c.44.189 1.16.338 1.6.332.643-.009.604-.075-.2-.332-1.368-.438-2.419-.438-1.4 0m11.2 0c-.504.217-.578.344-.2.344.33 0 .96-.155 1.4-.344.504-.217.578-.344.2-.344-.33 0-.96.155-1.4.344m-168.491 1.6c0 .99.078 1.395.173.9a5.661 5.661 0 0 0 0-1.8c-.095-.495-.173-.09-.173.9m53.171-.8c0 .55.144 1.45.32 2l.32 1v-1c0-.55-.144-1.45-.32-2l-.32-1v1m108.82-.109c.825.087 2.175.087 3 0 .825-.086.15-.157-1.5-.157s-2.325.071-1.5.157M154.387 221.3c-.013 1.817-.406 2.537-1.976 3.618-.544.375-.788.682-.542.682 1.291 0 2.931-2.327 2.931-4.16 0-1.012-.09-1.84-.2-1.84-.11 0-.206.765-.213 1.7m50.599 1.2c-.538 1.155-.967 2.37-.954 2.7.013.33.263-.047.554-.838.291-.79.823-2.005 1.182-2.7.359-.694.55-1.262.424-1.262-.126 0-.669.945-1.206 2.1m84.648-1.7c.012.33.177.96.366 1.4l.344.8.022-.8c.012-.44-.153-1.07-.366-1.4-.345-.533-.385-.533-.366 0m-143.221 2.245c-.017.577 1.961 2.558 2.542 2.546.245-.005.045-.32-.443-.7-.489-.38-1.158-1.051-1.487-1.491-.33-.44-.605-.6-.612-.355m84.844.771c.581.594 1.232 1.013 1.445.932.214-.082-.261-.567-1.056-1.08l-1.446-.931 1.057 1.079m59.199-.016c0 .44.155 1.16.344 1.6l.344.8v-.8c0-.44-.155-1.16-.344-1.6l-.344-.8v.8M133.8 225.286c-2.097 1.211-3.626 5.233-2.3 6.052.165.102.3-.712.3-1.809 0-2.661 1.808-4.489 4.215-4.259.835.08 1.432.006 1.328-.163-.287-.464-2.635-.345-3.543.179M92.868 226c-.006.55.143 1.36.332 1.8l.344.8-.012-.8c-.006-.44-.156-1.25-.332-1.8l-.32-1-.012 1m8.744 0c0 .33.175.87.388 1.2.345.533.388.533.388 0 0-.33-.175-.87-.388-1.2-.345-.533-.388-.533-.388 0m37.54 1.061c1.608 2.131 3.656 3.923 5.643 4.937 2.458 1.253 2.462.926.005-.402-1.21-.654-3.258-2.316-4.551-3.693-1.548-1.649-1.923-1.936-1.097-.842m64.305.439c-.305 1.845-.266 4.384.087 5.642.146.518.265-.877.265-3.1 0-4.553-.009-4.618-.352-2.542m-8.517 2.5c0 1.87.069 2.635.153 1.7.084-.935.084-2.465 0-3.4s-.153-.17-.153 1.7m87.66.8c0 3.761.037 3.981.356 2.1.209-1.228.209-2.972 0-4.2-.319-1.881-.356-1.661-.356 2.1m-113.223-1.911c1.378 1.966.754 4.1-2.137 7.311l-1.44 1.6 1.733-1.6c2.043-1.887 2.867-3.312 2.867-4.961 0-1.359-.747-3.239-1.287-3.239-.197 0-.078.4.264.889m-75.765.311c0 .33.175.87.388 1.2.345.533.388.533.388 0 0-.33-.175-.87-.388-1.2-.345-.533-.388-.533-.388 0m11.116 3.053c1.195 1.742 3.334 3.549 5.944 5.023 1.219.688 2.556 1.807 2.971 2.487.83 1.362 1.002 1.213.323-.279-.239-.524-1.634-1.634-3.1-2.467-1.466-.832-3.641-2.527-4.832-3.765-1.191-1.239-1.779-1.688-1.306-.999m27.285.04c-.026.979 6.169 6.71 8.687 8.037 3.278 1.727 3.231 1.348-.062-.494-2.575-1.44-6.166-4.605-7.757-6.836-.471-.66-.861-.978-.868-.707m-35.184 3.953c.472.906 1.834 2.706 3.028 4l2.169 2.354-2.513-3.233c-1.382-1.778-2.745-3.578-3.028-4-.283-.422-.128-.026.344.879m98.417-.646c-.019.55.141 1.27.354 1.6.494.764.494-.058 0-1.6l-.32-1-.034 1m86.554.8c-.15.473-.183.95-.073 1.06.11.11.323-.187.473-.66.15-.473.183-.95.073-1.06-.11-.11-.323.187-.473.66m8.8.4c-.152.691-.186 1.347-.076 1.457.11.11.324-.366.476-1.057.152-.691.186-1.347.076-1.457-.11-.11-.324.366-.476 1.057m-125.833 1.405c-.322.322-1.752 1.213-3.176 1.981-1.425.768-2.436 1.4-2.247 1.405.92.024 6.566-3.414 6.203-3.777-.107-.107-.458.069-.78.391m31.233.051c0 .565 1.979 2.544 2.544 2.544.238 0 .04-.276-.442-.613a7.347 7.347 0 0 1-1.489-1.489c-.337-.482-.613-.68-.613-.442m6.557 1.166c-.684.758-1.114 1.378-.955 1.378.408 0 2.398-2.037 2.398-2.455 0-.497-.07-.445-1.443 1.077m77.68.811c-1.222 2.333-4.606 5.707-6.987 6.965-.797.422-1.26.775-1.028.784 2.164.091 10.461-8.632 9.308-9.785-.082-.082-.664.834-1.293 2.036m7.563 4.362c-1.806 3.606-5.506 7.819-8.623 9.82-2.038 1.307-2.668 1.976-1.077 1.141 2.707-1.419 6.579-5.13 8.512-8.156 1.637-2.564 3.07-5.383 2.911-5.73-.067-.148-.843 1.168-1.723 2.925M156.8 242l-1 .32 1 .034c.55.019 1.27-.141 1.6-.354.764-.494-.058-.494-1.6 0m-54.4.687c0 .235.274.533.61.661.335.129.773.643.974 1.143.23.571.375.675.391.279.014-.347-.425-1.053-.975-1.57-.55-.517-1-.747-1-.513m102.97 5.732c.644.192 2.001 1.121 3.015 2.065 1.463 1.361 1.414 1.281-.235-.384-1.388-1.402-2.39-2.089-3.015-2.066-.826.031-.799.075.235.385m44.349.365c-1.246.76-2.528 2.647-2.51 3.696.005.286.349-.23.766-1.148.747-1.646 1.6-2.345 3.602-2.953.816-.247.861-.317.223-.343-.44-.018-1.376.318-2.081.748M104.034 249c-.012.44.153 1.07.366 1.4.514.795.514-.204 0-1.4l-.344-.8-.022.8m108.655 6.5c1.304 1.485 7.118 8.19 12.92 14.9 5.802 6.71 10.739 12.332 10.97 12.494.603.421 1.021.373 1.021-.118 0-.233-.159-.325-.354-.205-.194.121-1.049-.551-1.9-1.492-2.102-2.326-5.79-6.574-7.187-8.279-.63-.77-1.242-1.49-1.36-1.6-.118-.11-1.381-1.55-2.807-3.2-1.425-1.65-2.683-3.09-2.794-3.2-.112-.11-1.192-1.37-2.4-2.8-1.209-1.43-2.692-3.14-3.296-3.8-.604-.66-1.864-2.136-2.8-3.281-.936-1.144-1.856-2.089-2.043-2.1-.188-.01.726 1.196 2.03 2.681m-104.746 0c.765.715 1.58 1.3 1.813 1.3.232 0-.023-.298-.567-.662a40.55 40.55 0 0 1-1.812-1.3c-.453-.351-.198-.053.566.662m2.657 1.7c.136.22.642.387 1.124.372.845-.027.847-.041.076-.372-1.101-.473-1.492-.473-1.2 0m8.323.699c2.818.069 7.318.069 10 0 2.682-.069.377-.126-5.123-.126-5.5.001-7.695.057-4.877.126m53.15.001 29.873.105.785.998c.431.548.927.997 1.101.997.175 0-.2-.54-.832-1.2l-1.15-1.2-29.825.097-29.825.098 29.873.105m83.509.534c-.246.459-.359.923-.251 1.03.108.108.313-.174.457-.626.25-.789.59-.827 8.536-.939l8.276-.116-8.286-.092c-8.037-.088-8.299-.066-8.732.743M245 258.8c-.15.473-.183.95-.073 1.06.11.11.323-.187.473-.66.15-.473.183-.95.073-1.06-.11-.11-.323.187-.473.66m-39 4.005a235.213 235.213 0 0 0 3.662 4.185 81.405 81.405 0 0 1 2.8 3.289c.736.924 1.483 1.689 1.659 1.7.372.024-9.076-10.981-9.823-11.441-.274-.169.492.851 1.702 2.267m38.2-1.605c-.15.473-.183.95-.073 1.06.11.11.323-.187.473-.66.15-.473.183-.95.073-1.06-.11-.11-.323.187-.473.66m-.8 2.4c-.15.473-.183.95-.073 1.06.11.11.323-.187.473-.66.15-.473.183-.95.073-1.06-.11-.11-.323.187-.473.66m10.4 0c-.15.473-.183.95-.073 1.06.11.11.323-.187.473-.66.15-.473.183-.95.073-1.06-.11-.11-.323.187-.473.66m-11.2 2.4c-.15.473-.183.95-.073 1.06.11.11.323-.187.473-.66.15-.473.183-.95.073-1.06-.11-.11-.323.187-.473.66m10.4 0c-.15.473-.183.95-.073 1.06.11.11.323-.187.473-.66.15-.473.183-.95.073-1.06-.11-.11-.323.187-.473.66m-11.127 2.153c-.15.392-.262 1.013-.248 1.38.017.442.156.341.412-.299.212-.531.324-1.152.248-1.38-.076-.227-.261-.093-.412.299m10.327.247c-.15.473-.183.95-.073 1.06.11.11.323-.187.473-.66.15-.473.183-.95.073-1.06-.11-.11-.323.187-.473.66m-.8 2.4c-.15.473-.183.95-.073 1.06.11.11.323-.187.473-.66.15-.473.183-.95.073-1.06-.11-.11-.323.187-.473.66m-35 4.004a229.727 229.727 0 0 0 3.298 3.785c.604.666 1.864 2.147 2.8 3.292.936 1.144 1.847 2.089 2.023 2.1.372.022-9.075-10.982-9.823-11.443-.274-.169.492.851 1.702 2.266m21.4 5.996c-.15.473-.183.95-.073 1.06.11.11.323-.187.473-.66.15-.473.183-.95.073-1.06-.11-.11-.323.187-.473.66m9.629 2.229c-.148.586-.178 1.155-.068 1.265.11.11.32-.279.468-.865.147-.587.177-1.156.067-1.266-.11-.11-.32.279-.467.866m-20.631 3.791c1.208 1.419 2.293 2.67 2.41 2.78.117.11 1.198 1.366 2.402 2.79 2.798 3.31 3.079 3.61 3.387 3.61.308 0-9.29-11.089-9.938-11.481-.252-.153.53.883 1.739 2.301m19.802-1.22c-.15.473-.183.95-.073 1.06.11.11.323-.187.473-.66.15-.473.183-.95.073-1.06-.11-.11-.323.187-.473.66m-.8 2.4c-.15.473-.183.95-.073 1.06.11.11.323-.187.473-.66.15-.473.183-.95.073-1.06-.11-.11-.323.187-.473.66m-.8 2.4c-.15.473-.183.95-.073 1.06.11.11.323-.187.473-.66.15-.473.183-.95.073-1.06-.11-.11-.323.187-.473.66m-.8 2.4c-.15.473-.183.95-.073 1.06.11.11.323-.187.473-.66.15-.473.183-.95.073-1.06-.11-.11-.323.187-.473.66m-.6 1.969c0 .203-.466.923-1.036 1.6-.569.677-.905 1.231-.746 1.231.451 0 2.181-2.141 2.182-2.7 0-.275-.09-.5-.2-.5-.11 0-.2.166-.2.369m-8.4 1.843c0 1.117 4.34 2.197 5.6 1.393.413-.263.137-.308-.883-.144-1.08.173-1.92.01-3.1-.605-.889-.464-1.617-.753-1.617-.644"/></g></svg>